<svg width="640" height="640" viewBox="0 0 640 640" fill="none" xmlns="http://www.w3.org/2000/svg" role="img" aria-hidden="true">
  <!-- Step 1 — Paste the JD. A clipboard sheet with text lines. Phantom palette,
       flat fills, 1.5px ash strokes, periwinkle clip accent. -->
  <rect width="640" height="640" fill="#f4f2f4"/>

  <!-- Clipboard board. -->
  <rect x="180" y="132" width="280" height="376" rx="24" fill="#fdfcfe" stroke="#e9e8ea" stroke-width="2"/>

  <!-- Top clip. -->
  <rect x="288" y="112" width="64" height="34" rx="12" fill="#ab9ff2"/>
  <rect x="304" y="122" width="32" height="14" rx="7" fill="#f4f2f4"/>

  <!-- Heading + lines suggesting a pasted job description. -->
  <rect x="216" y="186" width="120" height="14" rx="7" fill="#3c315b"/>
  <rect x="216" y="222" width="208" height="8" rx="4" fill="#86848d"/>
  <rect x="216" y="244" width="208" height="8" rx="4" fill="#86848d"/>
  <rect x="216" y="266" width="176" height="8" rx="4" fill="#86848d"/>

  <rect x="216" y="308" width="208" height="8" rx="4" fill="#86848d"/>
  <rect x="216" y="330" width="192" height="8" rx="4" fill="#86848d"/>
  <rect x="216" y="352" width="208" height="8" rx="4" fill="#86848d"/>
  <rect x="216" y="374" width="150" height="8" rx="4" fill="#86848d"/>

  <rect x="216" y="416" width="208" height="8" rx="4" fill="#86848d"/>
  <rect x="216" y="438" width="128" height="8" rx="4" fill="#86848d"/>
</svg>
