<svg width="800" height="344" viewBox="0 0 800 344" fill="none" xmlns="http://www.w3.org/2000/svg">
<path d="M522.163 0.00195312C546.146 -0.0674319 571.289 2.65725 589.146 20.3857C610.812 41.8929 606.807 75.3109 606.78 103.231L606.639 191.256C575.953 190.871 545.069 191.615 514.337 191.469C514.389 200.622 512.74 251.681 515.883 256.127C517.305 258.136 520.245 259.317 522.618 259.563C525.381 259.851 528.493 259.211 530.589 257.295C532.338 255.696 532.789 253.455 533.124 251.205C534.032 245.119 533.54 238.468 533.549 232.319C533.501 220.814 533.57 209.307 533.755 197.804L606.589 197.829L606.618 240.148C606.712 259.43 602.263 277.978 588.734 292.489C571.606 310.285 547.719 311.721 525.035 312.688C474.927 314.824 440.226 296.521 440.438 241.921C440.582 205.108 440.656 166.762 440.648 129.56L440.647 88.3271C440.651 80.911 440.624 73.3281 440.803 66.0693C441.508 37.5251 456 14.2076 483.817 5.18652C497.571 0.725745 507.905 0.203205 522.163 0.00195312ZM533.076 63.5049C532.532 56.8972 529.019 53.7489 522.354 54.0703C519.42 55.4354 517.11 56.5627 515.91 59.7422C513.424 66.3341 514.395 129.765 514.226 142.19L526.895 142.152L533.573 142.155L533.535 91.458C533.536 82.2693 533.83 72.6574 533.076 63.5049Z" fill="white"/>
<path d="M652.675 2.71257C665.748 0.897462 679.556 5.73848 689.016 14.9373C702.866 28.4046 700.707 45.9536 700.628 63.6361L700.48 97.9643C700.489 102.65 700.554 118.1 706.822 117.848C713.234 114.197 710.86 100.088 711.391 93.7457C712.876 76.07 708.187 48.1936 713.343 31.5355C724.673 -5.06402 778.089 -8.20255 794.719 26.923C798.374 34.5701 799.808 43.091 798.859 51.5135C798.234 57.4242 791.219 75.624 788.919 82.2751C780.245 107.592 771.351 132.834 762.24 157.997C769.029 174.611 775.345 194.094 780.908 211.514C787.119 230.966 800.671 261.088 799.977 281.094C798.987 309.629 772.19 313.655 749.023 311.44C743.531 310.707 735.388 308.403 730.81 305.287C708.827 290.322 711.42 272.232 711.518 249.821L711.68 212.837C711.706 206.018 712.956 190.36 706.329 186.482L705.423 186.757C699.286 194.21 700.901 205.197 700.994 214.43L701.185 253.055C701.198 258.831 701.463 269.6 700.821 275.085C700.411 278.721 699.483 282.279 698.064 285.652C693.926 295.517 684.738 305.926 674.726 309.217C632.707 323.526 600.442 292.739 615.712 249.923C626.536 219.574 637.833 187.274 650.855 157.671C642.965 140.39 636.103 118.278 629.373 100.246C624.909 85.7919 617.295 71.0342 614.591 56.1554C609.398 27.5897 625.328 7.26756 652.675 2.71257Z" fill="white"/>
<path d="M36.5304 2.11243C46.8221 0.94465 56.3138 2.73735 64.9432 8.37273C85.84 22.0189 84.7503 42.882 84.2581 65.0412C84.1347 70.5569 84.2705 76.3409 84.2762 81.8193L84.3407 155.21C84.352 170.219 83.8903 186.462 85.255 201.288C86.2044 211.616 88.9123 223.132 91.0792 233.325C98.8849 207.486 97.3357 171.925 97.2758 145.001L97.3471 74.0873C97.3584 64.8635 96.6545 42.0139 98.2229 34.1166C99.72 26.8272 103.243 20.1094 108.387 14.7329C115.94 6.93523 126.283 2.46072 137.137 2.29387C147.888 2.07112 158.911 6.04951 166.599 13.6519C171.596 18.6934 175.081 25.0343 176.659 31.9558C178.655 40.4915 177.883 56.5769 177.876 66.0067L177.889 116.544L177.843 158.647C177.84 163.575 178.092 177.469 177.243 181.283C175.805 187.734 169.418 200.886 166.424 207.483L145.862 252.447L131.86 283.234C127.876 292.06 123.472 306.797 112.699 308.686C98.9822 311.09 80.2648 310.216 66.1766 309.52C58.1186 309.12 52.2865 304.181 48.7469 297.342C43.0064 286.25 37.834 274.577 32.3413 263.237L12.3734 222.395C9.84323 217.113 1.50689 199.842 0.804185 194.616C-0.0162097 188.509 0.300636 171.933 0.309689 165.161L0.431901 99.752L0.271219 61.7678C0.168246 46.4226 -1.89123 34.0906 7.17724 20.9572C14.0312 10.984 24.6115 4.19139 36.5304 2.11243Z" fill="white"/>
<path d="M275.374 4.52734C326.913 5.63434 381.161 4.65321 432.954 4.77874L433.217 67.5832L394.945 67.4248L394.958 203.213L394.969 246.176C394.969 256.024 395.261 266.763 394.22 276.492C392.712 286.149 389.7 295.388 382.514 302.245C366.797 317.243 339.922 317.957 324.567 302.149C311.096 288.279 312.868 267.025 312.817 249.308L312.731 208.532L312.744 67.2697L275.132 67.3059C275.207 55.927 275.173 44.5469 275.03 33.169C274.971 28.2339 274.405 7.96956 275.374 4.52734Z" fill="white"/>
<path d="M226.869 2.21616C246.302 1.76192 265.197 14.177 267.272 34.1177C268.774 48.5494 268.155 65.7882 268.034 80.3478C267.792 103.492 267.708 126.638 267.783 149.784L267.808 231.338C267.825 236.387 267.709 241.847 267.88 246.829C268.963 278.511 268.802 308.181 230.078 312.594C219.955 312.711 211.437 312.404 202.957 305.891C195.76 300.363 189.447 286.584 189.069 277.724C188.293 259.532 188.648 240.305 188.673 221.961L188.683 126.796L188.647 70.2139C188.632 59.865 188.396 49.5907 189.024 39.2542C190.326 17.8365 205.957 3.76901 226.869 2.21616Z" fill="white"/>
<path d="M306.402 73.93C306.429 92.0019 306.363 110.074 306.205 128.144L306.171 222.57C306.115 241.689 304.643 264.016 307.568 282.739C315.401 332.864 390.619 332.234 399.707 283.1C403.166 264.399 402.163 239.64 402.242 220.172C402.417 182.75 402.293 145.324 401.871 107.904C401.818 102.448 400.891 78.6636 404.517 75.1728C407.136 72.6521 429.111 73.8349 434.01 74.2865L433.807 187.957C433.786 211.842 431.575 247.628 437.271 270.255C451.05 324.986 521.538 324.804 565.276 313.956C585.512 308.937 596.28 296.664 605.676 279.136C606.117 281.56 606.658 283.964 607.3 286.343C610.302 297.107 618.638 307.736 628.395 313.059C644.411 321.798 663.146 320.489 680.024 315.768C666.285 350.266 621.14 349.677 596.257 328.187C590.916 323.575 586.967 318.206 583.008 312.423C570.162 331.671 553.921 340.639 530.971 342.304C486.87 345.503 429.687 337.09 425.505 282.84C424.318 269.884 426.012 258.738 426.032 245.968C426.081 214.731 426.054 183.459 425.977 152.223L425.86 120.091C425.849 114.352 426.784 95.3217 422.985 91.4506C409.784 77.7105 407.074 100.02 406.68 108.976C405.74 130.383 406.213 152.169 406.208 173.603V219.452C406.211 227.637 405.689 237.976 406.419 245.915C409.28 277.045 422.046 313.434 389.285 334.188C368.133 347.59 334.927 348.119 315.518 330.435C294.714 311.481 302.095 276.777 302.244 251.159C302.523 214.062 302.54 176.963 302.294 139.866C302.189 126.063 302.408 112.364 302.149 98.4639C302.648 93.3681 299.22 85.4108 292.837 87.0238C285.249 88.9401 287.31 109.551 287.356 115.224L287.417 144.524C287.421 178.37 287.648 212.215 288.098 246.059C288.803 284.823 298.16 330.424 248.035 340.911C210.72 348.718 193.56 330.607 185.953 295.392C196.64 314.376 207.236 319.586 229.191 319.053C246.539 318.632 260.563 311.53 268.329 295.492C270.837 290.281 272.509 284.708 273.279 278.977C275.007 265.963 274.25 245.035 274.181 231.045L274.017 132.716C273.981 115.558 273.729 98.0847 274.53 80.9421C274.653 78.2787 274.772 76.0511 276.591 74.0873C285.883 73.664 296.977 73.9334 306.402 73.93Z" fill="white"/>
<path d="M178.451 197.084C178.838 199.124 178.745 213.424 178.482 216.216C177.151 227.818 180.881 259.244 176.644 268.361C164.804 293.838 158.437 338.544 123.723 340.694C106.415 341.764 85.3822 343.594 68.8227 339.779C56.6571 336.978 49.8484 320.394 44.9509 310.613C42.3042 304.759 39.241 298.367 37.0469 292.384C43.5534 302.68 50.4527 316.236 64.6891 316.924C79.9574 317.661 101.925 319.113 116.368 315.021C129.118 311.409 138.878 284.078 144.225 272.527L178.451 197.084Z" fill="white"/>
<path d="M705.603 285.283C708.04 289.316 710.409 293.426 713.046 297.334C729.183 321.259 762.496 323.588 787.696 313.321C780.025 324.791 773.662 330.33 761.378 336.618C745.779 343.464 731.845 346.074 715.222 340.889C701.003 336.453 689.039 327.912 682.016 314.636C693.286 305.713 700.747 299.381 705.603 285.283Z" fill="white"/>
<path d="M614.107 81.6953C616.389 84.1436 639.537 148.777 643.295 157.848C636.7 175.409 629.997 192.926 623.182 210.401C620.013 217.391 617.266 225.089 614.096 232.31C612.739 183.278 614.44 131.14 614.107 81.6953Z" fill="white"/>
</svg>
