<svg width="1000" height="1000" viewBox="0 0 1000 1000" fill="none" xmlns="http://www.w3.org/2000/svg">
<rect width="1000" height="1000" rx="200" fill="white"/>
<path d="M622.163 352.002C646.146 351.933 671.289 354.657 689.146 372.386C710.812 393.893 706.807 427.311 706.78 455.231L706.639 543.256C675.953 542.871 645.069 543.615 614.337 543.469C614.389 552.623 612.74 603.682 615.883 608.127C617.305 610.136 620.245 611.317 622.618 611.563C625.381 611.851 628.493 611.211 630.589 609.295C632.338 607.696 632.789 605.454 633.124 603.204C634.031 597.118 633.54 590.467 633.549 584.319C633.501 572.814 633.57 561.307 633.755 549.804L706.589 549.829L706.618 592.148C706.712 611.43 702.263 629.978 688.734 644.489C671.606 662.285 647.719 663.721 625.035 664.688C574.927 666.824 540.226 648.521 540.438 593.921C540.582 557.108 540.656 518.762 540.648 481.56L540.647 440.327C540.651 432.911 540.624 425.328 540.803 418.069C541.508 389.525 556 366.208 583.817 357.187C597.571 352.726 607.905 352.203 622.163 352.002ZM633.076 415.505C632.532 408.897 629.019 405.748 622.354 406.069C619.421 407.434 617.11 408.562 615.91 411.741C613.424 418.331 614.395 481.764 614.226 494.19L626.895 494.151L633.573 494.155L633.535 443.457C633.536 434.268 633.83 424.657 633.076 415.505Z" fill="black"/>
<path d="M752.675 354.713C765.748 352.897 779.556 357.738 789.016 366.937C802.866 380.405 800.707 397.954 800.628 415.636L800.48 449.964C800.489 454.65 800.554 470.1 806.822 469.848C813.234 466.197 810.86 452.088 811.391 445.746C812.876 428.07 808.187 400.194 813.343 383.535C824.673 346.936 878.089 343.797 894.719 378.923C898.374 386.57 899.808 395.091 898.859 403.513C898.234 409.424 891.219 427.624 888.919 434.275C880.245 459.592 871.351 484.834 862.24 509.997C869.029 526.611 875.345 546.094 880.908 563.514C887.119 582.966 900.671 613.088 899.977 633.094C898.987 661.629 872.19 665.655 849.023 663.44C843.531 662.707 835.388 660.403 830.81 657.287C808.827 642.322 811.42 624.232 811.518 601.821L811.68 564.837C811.706 558.018 812.956 542.36 806.329 538.482L805.423 538.757C799.286 546.21 800.901 557.197 800.994 566.43L801.185 605.055C801.198 610.831 801.463 621.6 800.821 627.085C800.411 630.721 799.483 634.279 798.064 637.652C793.926 647.517 784.738 657.926 774.726 661.217C732.707 675.526 700.442 644.739 715.712 601.923C726.536 571.574 737.833 539.274 750.855 509.671C742.965 492.39 736.103 470.278 729.373 452.246C724.909 437.792 717.295 423.034 714.591 408.155C709.398 379.59 725.328 359.268 752.675 354.713Z" fill="black"/>
<path d="M136.53 354.112C146.822 352.945 156.314 354.737 164.943 360.373C185.84 374.019 184.75 394.882 184.258 417.041C184.135 422.557 184.271 428.341 184.276 433.819L184.341 507.21C184.352 522.219 183.89 538.462 185.255 553.288C186.204 563.616 188.912 575.132 191.079 585.325C198.885 559.486 197.336 523.925 197.276 497.001L197.347 426.087C197.358 416.864 196.655 394.014 198.223 386.117C199.72 378.827 203.243 372.109 208.387 366.733C215.94 358.935 226.283 354.461 237.137 354.294C247.888 354.071 258.911 358.05 266.599 365.652C271.596 370.693 275.081 377.034 276.659 383.956C278.655 392.491 277.883 408.577 277.876 418.007L277.889 468.544L277.843 510.647C277.84 515.575 278.092 529.469 277.243 533.283C275.805 539.734 269.418 552.886 266.424 559.483L245.862 604.447L231.86 635.234C227.876 644.06 223.472 658.797 212.699 660.686C198.982 663.09 180.265 662.216 166.177 661.52C158.119 661.12 152.286 656.181 148.747 649.342C143.006 638.25 137.834 626.577 132.341 615.237L112.373 574.395C109.843 569.113 101.507 551.842 100.804 546.616C99.9838 540.509 100.301 523.933 100.31 517.161L100.432 451.752L100.271 413.768C100.168 398.423 98.1088 386.091 107.177 372.957C114.031 362.984 124.611 356.191 136.53 354.112Z" fill="black"/>
<path d="M375.374 356.527C426.913 357.634 481.161 356.653 532.954 356.779L533.217 419.583L494.945 419.425L494.958 555.213L494.969 598.176C494.969 608.024 495.261 618.763 494.22 628.492C492.712 638.149 489.7 647.388 482.514 654.245C466.797 669.243 439.922 669.957 424.567 654.149C411.096 640.279 412.868 619.025 412.817 601.308L412.731 560.532L412.744 419.27L375.132 419.306C375.207 407.927 375.173 396.547 375.03 385.169C374.971 380.234 374.405 359.97 375.374 356.527Z" fill="black"/>
<path d="M326.869 354.216C346.302 353.762 365.197 366.177 367.272 386.118C368.774 400.549 368.155 417.788 368.034 432.348C367.792 455.492 367.708 478.638 367.783 501.784L367.808 583.338C367.825 588.387 367.709 593.847 367.88 598.829C368.963 630.511 368.802 660.181 330.078 664.594C319.955 664.711 311.437 664.404 302.957 657.891C295.76 652.363 289.447 638.584 289.069 629.724C288.293 611.532 288.648 592.305 288.673 573.961L288.683 478.796L288.647 422.214C288.632 411.865 288.396 401.591 289.024 391.254C290.326 369.836 305.957 355.769 326.869 354.216Z" fill="black"/>
<path d="M406.402 425.93C406.429 444.002 406.363 462.074 406.205 480.144L406.171 574.57C406.115 593.689 404.643 616.016 407.568 634.739C415.401 684.864 490.619 684.234 499.707 635.1C503.166 616.399 502.163 591.64 502.242 572.172C502.417 534.75 502.293 497.324 501.871 459.904C501.818 454.448 500.891 430.664 504.517 427.173C507.136 424.652 529.111 425.835 534.01 426.287L533.807 539.957C533.786 563.842 531.575 599.628 537.271 622.255C551.05 676.986 621.538 676.804 665.276 665.956C685.512 660.937 696.28 648.664 705.676 631.136C706.117 633.56 706.658 635.964 707.3 638.343C710.302 649.107 718.638 659.736 728.395 665.059C744.411 673.798 763.146 672.489 780.024 667.768C766.285 702.266 721.14 701.677 696.257 680.187C690.916 675.575 686.967 670.206 683.008 664.423C670.162 683.671 653.921 692.639 630.971 694.304C586.87 697.503 529.687 689.09 525.505 634.84C524.318 621.884 526.012 610.738 526.032 597.968C526.081 566.731 526.054 535.459 525.977 504.223L525.86 472.091C525.849 466.352 526.784 447.322 522.985 443.451C509.784 429.711 507.074 452.02 506.68 460.976C505.74 482.383 506.213 504.169 506.208 525.603V571.452C506.211 579.637 505.689 589.976 506.419 597.915C509.28 629.045 522.046 665.434 489.285 686.188C468.133 699.59 434.927 700.119 415.518 682.435C394.714 663.481 402.095 628.777 402.244 603.159C402.523 566.062 402.54 528.963 402.294 491.866C402.189 478.063 402.408 464.364 402.149 450.464C402.648 445.368 399.22 437.411 392.837 439.024C385.249 440.94 387.31 461.551 387.356 467.224L387.417 496.524C387.421 530.37 387.648 564.215 388.098 598.059C388.803 636.823 398.16 682.424 348.035 692.911C310.72 700.718 293.56 682.607 285.953 647.392C296.64 666.376 307.236 671.586 329.191 671.053C346.539 670.632 360.563 663.53 368.329 647.492C370.837 642.281 372.509 636.708 373.279 630.977C375.007 617.963 374.25 597.035 374.181 583.045L374.017 484.716C373.981 467.558 373.729 450.085 374.53 432.942C374.653 430.279 374.772 428.051 376.591 426.087C385.883 425.664 396.977 425.933 406.402 425.93Z" fill="black"/>
<path d="M278.451 549.084C278.838 551.124 278.745 565.424 278.482 568.216C277.151 579.818 280.881 611.244 276.644 620.361C264.804 645.838 258.437 690.544 223.723 692.694C206.415 693.764 185.382 695.594 168.823 691.779C156.657 688.978 149.848 672.394 144.951 662.613C142.304 656.759 139.241 650.367 137.047 644.384C143.553 654.68 150.453 668.236 164.689 668.924C179.957 669.661 201.925 671.113 216.368 667.021C229.118 663.409 238.878 636.078 244.225 624.527L278.451 549.084Z" fill="black"/>
<path d="M805.603 637.283C808.04 641.316 810.409 645.426 813.046 649.334C829.183 673.259 862.496 675.588 887.696 665.321C880.025 676.791 873.662 682.33 861.378 688.618C845.779 695.464 831.845 698.074 815.222 692.889C801.003 688.453 789.039 679.912 782.016 666.636C793.286 657.713 800.747 651.381 805.603 637.283Z" fill="black"/>
<path d="M714.107 433.695C716.389 436.144 739.537 500.777 743.295 509.848C736.7 527.409 729.997 544.926 723.182 562.401C720.013 569.391 717.266 577.089 714.096 584.31C712.739 535.278 714.44 483.14 714.107 433.695Z" fill="black"/>
</svg>
